<?xml version="1.0" standalone="no"?>
<!DOCTYPE svg PUBLIC "-//W3C//DTD SVG 20010904//EN"
 "http://www.w3.org/TR/2001/REC-SVG-20010904/DTD/svg10.dtd">
<svg version="1.0" xmlns="http://www.w3.org/2000/svg"
 width="1024.000000pt" height="1024.000000pt" viewBox="0 0 1024.000000 1024.000000"
 preserveAspectRatio="xMidYMid meet">

<g transform="translate(0.000000,1024.000000) scale(0.100000,-0.100000)"
fill="#000000" stroke="none">
<path d="M7560 8602 c-24 -12 -45 -37 -65 -76 -47 -89 -137 -136 -304 -157
-321 -39 -460 -98 -531 -223 -37 -63 -38 -106 -5 -169 14 -26 24 -51 21 -55
-15 -25 -106 -57 -171 -60 l-70 -3 -16 39 c-20 49 -55 73 -113 79 -34 4 -53 0
-79 -16 l-34 -21 -1124 0 -1124 1 -45 67 c-246 367 -719 535 -1131 401 -273
-88 -482 -268 -605 -521 -19 -40 -41 -84 -47 -97 -9 -17 -27 -28 -64 -37 -250
-64 -440 -239 -520 -479 -24 -71 -27 -95 -27 -220 0 -126 2 -148 26 -215 88
-251 267 -418 523 -486 64 -17 113 -19 560 -19 533 0 556 2 715 58 280 98 497
283 628 535 112 214 140 399 106 690 l-7 52 1076 0 c1047 0 1077 -1 1086 -19
6 -10 85 -219 177 -462 91 -244 182 -478 202 -519 72 -151 242 -284 413 -325
95 -22 1420 -22 1496 0 74 22 130 67 159 128 23 50 24 61 24 270 0 243 -5 267
-65 313 -23 17 -44 24 -79 24 -39 0 -52 -5 -84 -34 l-37 -34 -5 -164 -5 -163
-295 0 c-162 0 -473 2 -690 5 -443 6 -444 6 -528 81 -47 40 -89 104 -74 112 4
3 34 12 67 21 33 10 143 57 245 106 274 132 318 140 760 140 l296 0 53 26 c84
42 127 130 101 208 -6 19 -29 51 -52 71 -38 35 -43 37 -101 33 l-62 -3 -82
220 c-79 214 -208 564 -262 715 -54 151 -83 187 -157 196 -27 4 -50 -1 -74
-14z m-1 -411 c-41 -34 -122 -70 -169 -77 -43 -6 -47 -4 -58 20 -16 36 -15 56
3 56 35 0 144 53 176 86 l33 35 20 -51 19 -50 -24 -19z m-4286 -40 c329 -97
551 -403 534 -736 -6 -120 -35 -232 -91 -345 -9 -19 -14 -26 -10 -15 3 11 7
27 8 35 1 8 7 25 14 38 7 13 11 28 9 35 -2 7 -10 1 -17 -13 -20 -40 -163 -165
-239 -209 -154 -90 -308 -126 -468 -110 -112 12 -167 29 -273 86 -110 59 -202
134 -281 231 -35 42 -74 88 -87 102 l-23 24 6 -29 c19 -84 30 -115 57 -170 39
-78 105 -169 160 -221 125 -120 327 -211 478 -215 46 -1 50 -3 25 -9 -16 -4
-232 -8 -480 -9 -486 -1 -506 1 -601 53 -208 113 -288 382 -176 590 37 69 125
155 198 193 83 44 162 63 261 63 l83 0 0 38 c0 47 40 194 67 247 32 62 107
154 170 207 72 61 215 132 308 152 95 21 276 15 368 -13z m3841 -28 c7 -16 33
-82 56 -148 23 -66 52 -145 65 -175 13 -30 47 -118 76 -195 28 -77 57 -153 65
-169 8 -16 14 -37 14 -47 0 -10 5 -21 10 -24 18 -11 2 -22 -43 -28 -23 -3 -52
-9 -62 -12 -15 -4 -14 -3 3 6 12 7 22 18 22 26 0 7 2 13 4 13 2 0 13 3 23 6
16 6 16 5 -2 -9 -16 -13 -17 -16 -4 -17 16 0 39 19 39 33 0 8 -206 0 -222 -9
-8 -5 13 -74 24 -74 4 0 8 -4 8 -10 0 -25 -20 -6 -33 33 -9 23 -30 78 -47 122
-17 44 -49 127 -70 185 -21 58 -68 179 -104 269 -37 90 -65 165 -64 166 43 33
167 82 215 84 7 1 19 -11 27 -26z m-345 -400 c8 -21 54 -139 103 -263 49 -124
90 -241 91 -260 l2 -34 -110 -48 c-60 -26 -113 -48 -117 -48 -4 0 -10 10 -13
23 -4 12 -43 114 -87 227 -127 324 -128 328 -128 339 0 6 13 11 28 11 47 0
126 28 168 59 21 16 41 30 44 30 4 1 12 -16 19 -36z m475 -407 l31 5 -30 -14
c-34 -16 -40 -13 -49 23 -6 24 -6 24 5 3 9 -18 18 -21 43 -17z m-3584 -350 c0
-2 -8 -10 -17 -17 -16 -13 -17 -12 -4 4 13 16 21 21 21 13z"/>
<path d="M2853 7675 c-17 -7 -36 -22 -42 -33 -6 -11 -11 -82 -12 -158 l-1
-138 31 -28 c45 -41 106 -39 147 3 29 30 29 32 32 161 4 144 -3 170 -50 194
-34 17 -64 17 -105 -1z"/>
<path d="M3245 7676 c-55 -24 -58 -35 -59 -187 l-1 -140 33 -30 c45 -41 102
-41 143 0 16 16 29 40 29 53 4 224 1 261 -22 284 -29 28 -84 37 -123 20z"/>
<path d="M3047 7185 c-86 -45 -99 -148 -26 -210 67 -55 162 -20 189 71 11 36
10 45 -8 81 -13 25 -34 46 -56 57 -42 20 -63 20 -99 1z"/>
<path d="M4150 8433 c-30 -11 -70 -57 -76 -89 -14 -77 40 -144 118 -144 45 0
92 37 108 85 30 90 -62 180 -150 148z"/>
<path d="M4583 8422 c-33 -25 -55 -86 -47 -128 3 -19 20 -48 36 -64 24 -25 38
-30 75 -30 39 0 50 5 84 39 43 43 50 80 24 131 -34 66 -121 92 -172 52z"/>
<path d="M5032 8412 c-36 -34 -49 -86 -32 -136 34 -104 176 -101 220 4 10 24
10 40 1 70 -26 87 -127 120 -189 62z"/>
<path d="M5508 8424 c-53 -28 -73 -105 -43 -164 21 -42 53 -60 103 -60 37 0
50 6 78 34 33 33 39 52 34 106 -3 37 -17 59 -53 80 -38 23 -82 25 -119 4z"/>
<path d="M5952 8415 c-64 -54 -64 -136 -1 -189 74 -63 189 -5 189 94 0 99
-115 157 -188 95z"/>
<path d="M5010 7456 c-47 -16 -92 -48 -941 -650 -123 -88 -325 -231 -449 -317
-124 -87 -279 -195 -345 -242 -66 -46 -210 -146 -320 -223 -110 -76 -223 -161
-250 -189 -149 -148 -150 -379 -2 -528 126 -128 328 -151 492 -57 29 17 56 30
60 30 4 0 5 -262 3 -582 l-4 -583 -26 -50 c-46 -89 -59 -151 -65 -302 l-6
-143 -127 0 c-183 0 -271 -32 -412 -152 -31 -26 -59 -48 -62 -48 -11 0 -47 83
-39 90 15 13 188 78 228 86 54 9 89 28 115 61 27 35 23 75 -15 158 -15 33 -40
93 -56 134 -37 97 -52 117 -89 125 -17 3 -43 15 -57 26 -14 11 -34 20 -44 20
-23 0 -128 -47 -151 -67 -15 -13 -18 -12 -32 15 -20 39 -53 62 -88 62 -38 0
-196 -64 -225 -92 -14 -13 -23 -33 -23 -50 0 -28 42 -123 57 -130 4 -1 20 -27
35 -56 l28 -52 -38 0 c-52 0 -104 -30 -125 -72 l-18 -36 49 -127 c27 -70 58
-138 70 -150 31 -33 97 -38 141 -12 33 20 34 20 45 1 15 -27 75 -164 78 -181
2 -8 -26 -26 -74 -47 -248 -108 -431 -350 -446 -588 -2 -43 -8 -78 -11 -78
-14 0 -91 147 -108 206 -16 53 -18 126 -21 739 -4 736 -2 761 49 895 51 133
176 273 299 335 69 35 100 76 100 131 0 188 -213 173 -437 -30 -132 -120 -248
-337 -282 -530 -15 -83 -15 -1436 0 -1508 41 -202 140 -379 292 -525 127 -121
257 -198 424 -250 l88 -28 2802 -3 c2747 -2 2804 -2 2892 17 157 35 334 122
456 227 136 116 265 326 317 514 l23 85 0 710 c0 791 1 772 -71 951 -87 217
-238 385 -424 473 -115 54 -209 33 -238 -53 -25 -76 13 -139 113 -189 146 -73
265 -228 315 -409 20 -74 21 -93 18 -789 -3 -707 -3 -715 -25 -779 -24 -69
-93 -192 -112 -198 -7 -2 -11 18 -11 65 -1 296 -229 605 -536 723 -43 16 -85
30 -92 30 -9 0 -12 6 -7 18 3 9 15 46 25 82 10 36 23 78 29 93 l11 28 52 -36
c63 -42 105 -45 163 -12 34 19 43 31 59 79 10 32 16 64 13 71 -6 16 -362 134
-422 140 -22 2 -87 21 -145 41 -118 42 -120 41 -141 -37 -20 -76 19 -123 126
-152 45 -13 65 -23 65 -34 0 -9 -16 -68 -36 -132 l-37 -117 -70 -7 c-38 -3
-80 -10 -93 -15 -19 -8 -31 -2 -71 33 -55 49 -104 79 -155 96 l-35 12 -6 292
c-4 225 -9 304 -21 345 -41 136 -41 130 -38 688 l2 542 91 -47 c89 -45 93 -46
182 -45 127 1 191 27 273 108 82 82 108 147 109 271 0 77 -4 98 -26 146 -15
31 -44 75 -64 98 -33 36 -356 271 -565 411 -64 43 -141 97 -661 466 -147 104
-336 237 -420 295 -85 58 -263 181 -397 274 -133 92 -265 176 -292 186 -57 22
-139 24 -190 5z m245 -366 c61 -43 173 -121 250 -175 256 -180 369 -258 476
-331 58 -39 204 -141 325 -226 120 -85 244 -173 275 -194 273 -189 611 -435
605 -441 -6 -7 -139 77 -271 172 -112 80 -206 145 -445 310 -91 63 -169 118
-175 122 -73 60 -628 429 -700 465 -107 54 -241 98 -335 111 -322 44 -568 -37
-965 -315 -309 -217 -658 -463 -835 -588 -214 -152 -370 -253 -378 -245 -4 3
-2 9 4 13 6 4 141 100 300 214 286 205 714 507 1097 775 109 76 293 204 409
285 187 131 213 146 232 136 11 -6 71 -46 131 -88z m-72 -724 c73 -17 157 -73
195 -128 53 -79 55 -76 -66 -80 -86 -2 -114 0 -142 15 -148 74 -268 -137 -127
-223 38 -24 91 -25 131 -5 20 11 33 12 40 5 5 -5 54 -10 108 -10 65 0 98 -4
98 -11 0 -32 -59 -115 -110 -154 -76 -58 -138 -80 -225 -79 -208 2 -363 189
-326 391 22 122 76 199 175 249 82 43 157 52 249 30z m-288 -897 c116 -55 302
-51 417 7 l47 24 479 0 c263 0 539 -3 613 -6 l134 -7 -2 -256 c-2 -141 -3
-259 -3 -263 0 -5 -56 -8 -125 -8 l-125 0 0 80 c0 121 -33 183 -115 221 -36
17 -71 19 -394 19 -341 0 -356 -1 -399 -21 -26 -13 -54 -38 -70 -62 -24 -36
-27 -52 -30 -138 l-4 -98 -207 -1 -208 -1 -7 93 c-7 109 -26 151 -85 193 l-43
30 -367 3 -367 3 -44 -24 c-71 -37 -100 -93 -107 -206 l-6 -91 -113 0 -114 0
-2 123 c0 67 0 185 1 262 l1 140 78 6 c42 3 307 6 588 7 l512 2 67 -31z m-247
-679 l2 -230 -255 0 -255 0 0 233 0 233 253 -3 252 -4 3 -229z m1430 0 l2
-230 -255 0 -255 0 0 235 0 234 253 -4 252 -5 3 -230z m464 -537 c83 -39 154
-108 194 -188 l29 -60 3 -557 3 -558 -60 0 c-33 0 -83 -5 -111 -11 -45 -10
-50 -13 -45 -32 4 -12 -11 5 -33 38 -47 73 -147 167 -213 200 -150 77 -350 73
-503 -8 -74 -39 -154 -112 -196 -177 -18 -28 -35 -50 -39 -50 -4 0 -18 8 -31
18 -23 16 -68 17 -535 20 -454 2 -515 1 -553 -14 -25 -9 -47 -25 -51 -37 -7
-17 -13 -12 -47 44 -55 91 -155 187 -239 230 -89 46 -146 60 -248 60 -223 0
-426 -123 -526 -318 -22 -44 -37 -58 -27 -25 5 14 -3 22 -29 35 -20 9 -42 17
-50 17 -11 0 -8 10 10 36 58 85 3 194 -98 194 -59 0 -117 -63 -117 -128 0 -16
11 -45 24 -64 l24 -36 -75 -17 c-81 -19 -151 -15 -190 11 -13 8 -33 35 -45 59
-21 44 -23 45 -70 45 l-48 0 0 35 c0 58 38 141 92 200 100 110 185 137 423
134 141 -1 156 0 183 20 57 40 66 76 69 281 2 102 8 203 14 225 17 65 87 186
137 239 82 85 203 151 312 169 14 3 603 4 1310 3 l1285 -1 67 -32z m522 -1143
c36 -43 46 -89 46 -208 0 -76 -4 -113 -16 -138 -15 -32 -48 -64 -66 -64 -5 0
-8 99 -8 220 0 126 4 220 9 220 5 0 21 -14 35 -30z m580 -96 c33 -9 88 -30
121 -47 85 -45 202 -165 247 -252 55 -109 61 -148 59 -398 l-1 -78 -54 -25
c-115 -53 -134 -54 -910 -54 l-718 0 63 68 c35 37 73 86 83 110 l19 42 205 0
c153 0 219 4 265 16 138 36 235 112 294 232 38 75 38 77 43 226 l5 151 45 12
c65 17 163 15 234 -3z m-4987 -126 c-2 -18 -4 -6 -4 27 0 33 2 48 4 33 2 -15
2 -42 0 -60z m1338 -16 c182 -86 228 -314 95 -466 -77 -87 -226 -120 -345 -76
-179 67 -251 281 -147 434 86 125 260 172 397 108z m2147 -26 c114 -34 187
-119 195 -230 18 -220 -201 -368 -401 -270 -138 68 -192 233 -122 372 58 115
195 168 328 128z m-3762 -54 c0 -175 81 -316 218 -380 l57 -27 337 -3 337 -3
46 -69 c25 -38 67 -88 93 -110 l47 -41 -590 4 c-639 4 -629 3 -742 61 l-53 26
0 133 c0 197 30 286 130 383 35 34 94 73 113 74 4 0 7 -22 7 -48z m3221 -474
c24 -34 62 -81 86 -104 24 -23 43 -45 43 -48 0 -3 -340 -6 -756 -6 l-756 0 56
61 c31 33 68 83 81 110 l25 49 590 0 589 0 42 -62z"/>
<path d="M4455 4121 c-22 -10 -51 -31 -65 -45 l-25 -28 -3 -301 c-2 -286 -1
-304 17 -334 42 -68 -28 -64 1117 -63 1013 0 1037 1 1064 20 58 41 61 62 58
369 l-3 279 -30 44 c-59 84 27 78 -1095 78 -946 0 -997 -1 -1035 -19z m415
-380 l0 -190 -151 -3 c-83 -2 -153 -1 -155 1 -7 7 -4 367 3 374 3 4 73 7 155
7 l148 0 0 -189z m520 -6 l0 -195 -155 0 -155 0 0 195 0 195 155 0 155 0 0
-195z m508 3 l-3 -192 -145 0 -145 0 -3 192 -2 192 150 0 150 0 -2 -192z m512
-3 l0 -196 -147 3 -148 3 -3 140 c-2 77 0 164 3 193 l6 52 145 0 144 0 0 -195z"/>
<path d="M3881 4114 c-98 -26 -200 -100 -261 -189 -56 -82 -63 -108 -68 -284
-5 -191 2 -228 53 -267 l35 -27 232 2 c127 1 240 6 250 12 9 5 29 26 43 47
l25 37 0 291 c0 286 0 292 -23 325 -33 50 -79 69 -162 68 -38 0 -94 -7 -124
-15z m99 -399 l0 -176 -102 3 -103 3 -3 75 c-2 41 1 91 7 110 21 71 119 158
179 160 22 0 22 0 22 -175z"/>
<path d="M3794 2731 c-51 -23 -85 -70 -91 -125 -6 -52 12 -91 62 -135 29 -25
44 -31 81 -31 106 0 172 73 166 182 -3 38 -65 105 -110 118 -50 13 -60 13
-108 -9z"/>
<path d="M8167 6095 c-53 -18 -73 -39 -86 -90 -14 -56 -15 -756 -1 -804 30
-105 168 -131 227 -42 l23 34 0 411 c0 438 -1 442 -50 477 -36 25 -70 29 -113
14z"/>
<path d="M1948 6082 c-57 -35 -58 -44 -58 -477 0 -439 1 -450 63 -482 41 -21
105 -19 136 5 60 43 61 49 61 483 0 396 0 396 -23 430 -12 18 -34 39 -47 46
-35 18 -100 16 -132 -5z"/>
<path d="M2545 4997 c-29 -29 -35 -42 -35 -76 0 -40 -1 -41 -35 -41 -24 0 -45
-9 -67 -29 -31 -27 -33 -34 -33 -91 0 -58 2 -63 37 -96 21 -19 46 -34 56 -34
11 0 22 -12 30 -33 14 -40 58 -67 107 -67 28 0 44 7 66 31 16 17 29 40 29 50
0 16 8 19 58 19 31 1 67 6 80 14 39 21 62 66 62 120 0 41 -5 53 -34 82 -29 29
-41 34 -79 34 l-44 0 -6 46 c-7 64 -39 95 -106 102 -47 4 -53 2 -86 -31z m125
-198 c26 -47 -26 -101 -65 -69 -18 15 -20 61 -3 78 19 19 56 14 68 -9z"/>
<path d="M7528 5014 c-33 -18 -58 -62 -58 -104 0 -28 -2 -30 -38 -30 -115 0
-153 -153 -56 -229 20 -15 41 -21 80 -21 49 0 55 -2 69 -29 38 -74 114 -93
166 -42 16 16 29 36 29 44 0 9 21 25 46 37 76 37 104 112 69 180 -21 40 -53
60 -97 60 l-38 0 0 46 c0 64 -40 104 -102 104 -24 -1 -55 -7 -70 -16z m97
-249 l0 -40 -40 0 c-36 0 -40 2 -43 28 -6 47 4 59 45 55 37 -3 38 -4 38 -43z"/>
<path d="M7503 4180 c-18 -10 -39 -29 -47 -42 -17 -26 -42 -145 -32 -155 10
-10 180 -63 204 -63 45 0 78 64 97 186 l6 41 -73 26 c-87 32 -113 33 -155 7z"/>
<path d="M7895 3994 c-32 -100 -27 -136 21 -169 30 -20 181 -62 190 -52 17 16
55 153 49 175 -14 56 -41 78 -129 106 -46 14 -88 26 -94 26 -5 0 -22 -39 -37
-86z"/>
</g>
</svg>
